<svg width="64" height="52" viewBox="0 0 64 52" fill="none" xmlns="http://www.w3.org/2000/svg">
<path d="M63 1H1V43H63V1Z" fill="#111111"/>
<path d="M1 1V43H27V51H39V43H63V1H1ZM60 40H4V4H60V40Z" fill="#A3AEB5"/>
<path d="M39 43H27V46H39V43Z" fill="#788287"/>
<path d="M64 44V0H0V44H26V50H24V52H42V50H40V44H64ZM2 42V2H62V42H2ZM38 50H28V44H38V50Z" fill="#111111"/>
<path d="M18 12H12V10H18V12ZM14 14V16H20V14H14ZM14 28H20V26H14V28ZM12 32H18V30H12V32Z" fill="#304878"/>
<path d="M44 18V20H16V18H44ZM16 24H44V22H16V24Z" fill="#3241B8"/>
<path d="M34 16H22V14H34V16ZM42 10H20V12H42V10Z" fill="#33529E"/>
</svg>
