<svg width="120" height="120" viewBox="0 0 120 120" fill="none" xmlns="http://www.w3.org/2000/svg">
<path d="M110 68C114.418 68 118 64.4183 118 60C118 55.5817 114.418 52 110 52C105.582 52 102 55.5817 102 60C102 64.4183 105.582 68 110 68Z" fill="#33529E"/>
<path d="M110 68C114.418 68 118 64.4183 118 60C118 55.5817 114.418 52 110 52C105.582 52 102 55.5817 102 60C102 64.4183 105.582 68 110 68Z" fill="#33529E"/>
<path d="M110 68C114.418 68 118 64.4183 118 60C118 55.5817 114.418 52 110 52C105.582 52 102 55.5817 102 60C102 64.4183 105.582 68 110 68Z" fill="#33529E"/>
<path d="M60 60L60 0C44.087 0 28.8258 6.32141 17.5736 17.5736C6.32141 28.8258 0 44.087 0 60C0 75.913 6.32141 91.1742 17.5736 102.426C28.8258 113.679 44.087 120 60 120V60Z" fill="white"/>
<path d="M60 60H0C0 75.913 6.32141 91.1742 17.5736 102.426C28.8258 113.679 44.087 120 60 120C75.913 120 91.1742 113.679 102.426 102.426C113.679 91.1742 120 75.913 120 60H60Z" fill="white"/>
<path d="M60 60H0C0 44.087 6.32141 28.8258 17.5736 17.5736C28.8258 6.32141 44.087 0 60 0C75.913 0 91.1742 6.32141 102.426 17.5736C113.679 28.8258 120 44.087 120 60H60Z" fill="white"/>
</svg>
